<svg xmlns="http://www.w3.org/2000/svg" xmlns:xlink="http://www.w3.org/1999/xlink" viewBox="0 0 1186.01 975.14"><defs><style>.cls-1{fill:none;}.cls-2{isolation:isolate;}.cls-3{clip-path:url(#clip-path);}.cls-4{fill:url(#linear-gradient);}.cls-5{opacity:0.25;}.cls-5,.cls-7{mix-blend-mode:overlay;}.cls-6,.cls-8{fill:#36ccb1;}.cls-6{fill-rule:evenodd;}.cls-7{opacity:0.5;}</style><clipPath id="clip-path" transform="translate(209.7 171.93)"><rect class="cls-1" width="749.88" height="465.56"/></clipPath><linearGradient id="linear-gradient" x1="209.65" y1="176.67" x2="959.85" y2="632.88" gradientUnits="userSpaceOnUse"><stop offset="0" stop-color="#320051"/><stop offset="1" stop-color="#36ccb1"/></linearGradient></defs><title>background</title><g class="cls-2"><g id="OBJECTS"><g class="cls-3"><rect class="cls-4" x="209.7" y="171.93" width="749.88" height="465.56"/><g class="cls-5"><path class="cls-6" d="M856.9,509.31c.17-.44.33-.88.49-1.32a10,10,0,0,1,19.1.3,33.65,33.65,0,0,1,.62,3.41c1.72-4.71,5.09-7.09,10-7.55A11.18,11.18,0,0,1,882,500a10.55,10.55,0,0,1-1.65-6.38c-3.15,6.27-7.81,8.6-13.08,6.68a9.88,9.88,0,1,1,13.24-8.51c3.27-5.93,6.72-8.14,11.56-7.32a9.94,9.94,0,0,1,6.11,3.48,10.6,10.6,0,0,1,2.41,7c1.67-4,4.16-6.4,8.4-7.19-1.61,6.18-3.15,12.11-4.74,18.2-2.76-2.23-3.82-5-4.07-8.48-2,4.7-5.3,7-10.36,7.12a10.86,10.86,0,0,1,7.52,9.45,11.07,11.07,0,0,1,6.18-5.84c-1.83,5.1-3.56,10-5.3,14.8l-.43,0c-.42-1.42-.84-2.85-1.31-4.42a10.82,10.82,0,0,1-8.52,6.27,10.68,10.68,0,0,1,5.77,7.21,1.81,1.81,0,0,1,0,1.1,92.54,92.54,0,0,1-4.79,9.55c-.75,1.19-2.66,1.65-4,2.41l2,1.45a218,218,0,0,1-20.8,31.3l-.6-2a11,11,0,0,1-7.68,5.46l3.34,2.77-14.71,15.5a11.47,11.47,0,0,1-4.36-6.93,11.28,11.28,0,0,1-7.69,5.28,10.74,10.74,0,0,1,5,6.47,2.24,2.24,0,0,1-.49,1.84,56.23,56.23,0,0,1-4.47,3.67c-5.08,3.88-10,7.92-15.31,11.52-5.59,3.84-11.49,7.23-17.23,10.87a2.26,2.26,0,0,1-3.21-.29,11.64,11.64,0,0,1-3.34-5.42c-.1-.34-.19-.69-.35-1.3a11.13,11.13,0,0,1-8.07,5.54,11,11,0,0,1,5.46,6.59l-19.22,8.34c-.53-1.71-1-3.13-1.48-4.74a10.76,10.76,0,0,1-9.13,6.18l2.35,1.42-15.36,4.5a9.7,9.7,0,0,1,8.42-6.5c-1.37-1.33-3.16-2.57-4.26-4.26a22.51,22.51,0,0,1-1.94-5.17c-1.08,1.25-2.21,3.11-3.84,4.29s-3.7,1.63-5.42,2.34a10.09,10.09,0,0,1,6,6.73c.68,2.41.63,2.61-1.74,3.12-5.4,1.16-10.82,2.22-16.23,3.3-.88.18-1.57-.1-1.56-1.11,0-2-.29-4.09.29-5.9,1.43-4.47,4.88-6.6,9.55-6.89-6-4.11-7.88-8.11-6-13.12a10.1,10.1,0,0,1,10.27-6.51c5.3.55,8.44,4.09,9.29,10.66,1.74-4.81,5.13-7.22,10.18-7.57-5.45-3.16-7.61-6.91-6.74-11.48.94-4.94,4.25-7.64,10.38-8.47-5.87-3.24-8-7.45-6.47-12.55a9.91,9.91,0,0,1,19.34,2,9.51,9.51,0,0,1-2.55,7.65,10.81,10.81,0,0,1-7.49,3.4c4.49,2,6.75,5.34,6.88,10.48,1.9-4.75,5.2-7.07,10.07-7.44-5.4-2.84-7.72-7.19-6.54-12a10.07,10.07,0,0,1,9.87-7.85,9.81,9.81,0,0,1,7,2.8,10.64,10.64,0,0,1,3.2,7.38,11,11,0,0,1,9.06-7.06c-4.92-2.82-6.61-6.94-5.66-12.22v0c1.38-3.52,3.64-6.14,7.45-7.1.9-.22,1.85-.31,2.87-.47-4.72-2.22-6.93-5.12-7.06-10.67-2.76,6-7.39,8.56-12.65,6.88a9.85,9.85,0,0,1,4-19.18c5.24.42,8.53,4.53,8.8,11,2.32-5.58,5.75-8.24,10.66-7.73,6,.62,8.93,4.4,9.5,10.46a10.73,10.73,0,0,1,9.27-7.36c-5.59-4.32-7.19-8.21-5.4-13a10,10,0,0,1,10.39-6.52,9.57,9.57,0,0,1,6.53,3.22,10.63,10.63,0,0,1,2.72,7c1.94-4.5,5.1-6.77,9.81-7.2-5.22-2.58-7.24-6.61-6.41-12.09l0,0c1.27-3.81,3.65-6.51,7.67-7.51.66-.17,1.35-.25,2.29-.41-5-2.42-7-6.22-6.46-11.39Zm-41.37,64.81a10.85,10.85,0,0,1,7.67,9.51,11.1,11.1,0,0,1,9.28-6.6c-4.12-2.19-6.24-5.39-6.36-10C823.22,572.3,821,573.78,815.53,574.12Zm-40.1,46c-1.93,4.41-5.18,6.72-10.34,6.83,4.48,1.69,6.91,4.68,7.52,8.95a29.51,29.51,0,0,1,3.67-3.88,26.55,26.55,0,0,1,4.65-2.32C776.86,626.53,776.3,625.57,775.43,620.12ZM882.62,524a11,11,0,0,1-6-9.69,10.64,10.64,0,0,1-9.53,7c4.72,3,5.85,4.53,6.66,9.42A11.06,11.06,0,0,1,882.62,524Zm-83.6,80c-2,4.18-5.09,6.48-10,6.71a11.05,11.05,0,0,1,7.15,8.62,11.31,11.31,0,0,1,8.82-5.87A11,11,0,0,1,799,603.93Zm79.92-60.07a11,11,0,0,1-5.87-9.19c-2,4-4.94,6.19-9.22,6.59a11.35,11.35,0,0,1,6.5,8.31A11.31,11.31,0,0,1,878.94,543.86Zm-32.31,22a29.28,29.28,0,0,1,3.6-3.54,28.61,28.61,0,0,1,4.55-2.18,10.85,10.85,0,0,1-5.16-9.3c-1.89,4.15-4.78,6.47-9.43,6.95C843.85,559.56,846,562.16,846.63,565.85Zm-18.78,30.89a11.06,11.06,0,0,1-5.33-8.92,10.93,10.93,0,0,1-8.84,6.5,11.13,11.13,0,0,1,6.13,8A11.27,11.27,0,0,1,827.85,596.74ZM845.75,572a11,11,0,0,1-8.79,5.75,11.24,11.24,0,0,1,6.44,8,11.37,11.37,0,0,1,8.06-5.46A11.19,11.19,0,0,1,845.75,572Zm-35.51,42.33a11.34,11.34,0,0,1,6,8.17,11.46,11.46,0,0,1,7.94-5.74,11.42,11.42,0,0,1-5.52-7.86A11.14,11.14,0,0,1,810.24,614.34Zm50.9-52.88a11.23,11.23,0,0,1,5.65,8.16,11.53,11.53,0,0,1,8-5.69,11.46,11.46,0,0,1-5.56-8A11.19,11.19,0,0,1,861.14,561.46Z" transform="translate(209.7 171.93)"/><path class="cls-6" d="M803,581.3a29.38,29.38,0,0,0-.51-3.51,10,10,0,0,0-19.63,2,10.14,10.14,0,0,0,7.67,10.29,10,10,0,0,0,11.56-6c.37-.92.62-1.89.92-2.84Z" transform="translate(209.7 171.93)"/><path class="cls-6" d="M853.44,528.57c0-.42-.09-.85-.11-1.27a9.87,9.87,0,1,0-.2,2.3,11,11,0,0,1,.34-1.07Z" transform="translate(209.7 171.93)"/><path class="cls-6" d="M893.92,464.42a10,10,0,1,0,10,10A10.05,10.05,0,0,0,893.92,464.42Z" transform="translate(209.7 171.93)"/><path class="cls-6" d="M809.91,544.06A9.89,9.89,0,1,0,819.56,534,9.88,9.88,0,0,0,809.91,544.06Z" transform="translate(209.7 171.93)"/><path class="cls-6" d="M735.88,613.43a9.83,9.83,0,1,0,9.79-9.88A9.76,9.76,0,0,0,735.88,613.43Z" transform="translate(209.7 171.93)"/><path class="cls-6" d="M856.9,509.31a27.18,27.18,0,0,0-.33-4.25,9.68,9.68,0,0,0-10.62-7.4,9.83,9.83,0,1,0,10.38,13c.18-.48.4-.95.6-1.43Z" transform="translate(209.7 171.93)"/><path class="cls-6" d="M732.23,629.73a9.78,9.78,0,1,0-9.69,9.81A9.73,9.73,0,0,0,732.23,629.73Z" transform="translate(209.7 171.93)"/><path class="cls-6" d="M897.6,444.79a9.79,9.79,0,1,0,9.81,9.69A9.75,9.75,0,0,0,897.6,444.79Z" transform="translate(209.7 171.93)"/><path class="cls-6" d="M716.75,658.76c2.06-.24,4.82-.55,7.57-.9a1.78,1.78,0,0,0,.85-.48A9.92,9.92,0,1,0,709,648a9.78,9.78,0,0,0,3.14,9.21C713.54,658.6,714,658.76,716.75,658.76Z" transform="translate(209.7 171.93)"/><path class="cls-6" d="M763.22,576.89a9.77,9.77,0,1,0,9.76-9.74A9.77,9.77,0,0,0,763.22,576.89Z" transform="translate(209.7 171.93)"/><path class="cls-6" d="M823.5,514.32a9.76,9.76,0,1,0,9.79,9.72A9.77,9.77,0,0,0,823.5,514.32Z" transform="translate(209.7 171.93)"/><path class="cls-6" d="M689.16,646.44a9.74,9.74,0,1,0,9.64-9.77A9.8,9.8,0,0,0,689.16,646.44Z" transform="translate(209.7 171.93)"/><path class="cls-6" d="M864.33,470.92a9.75,9.75,0,1,0,9.7-9.71A9.81,9.81,0,0,0,864.33,470.92Z" transform="translate(209.7 171.93)"/><path class="cls-6" d="M749.43,603a9.74,9.74,0,1,0-9.72-9.68A9.79,9.79,0,0,0,749.43,603Z" transform="translate(209.7 171.93)"/><path class="cls-6" d="M790.27,540.46a9.72,9.72,0,1,0,9.66-9.73A9.79,9.79,0,0,0,790.27,540.46Z" transform="translate(209.7 171.93)"/><path class="cls-6" d="M850.51,477.91a9.69,9.69,0,1,0,9.71,9.68A9.78,9.78,0,0,0,850.51,477.91Z" transform="translate(209.7 171.93)"/><path class="cls-6" d="M901,444.13a9.66,9.66,0,1,0-9.59-9.75A9.7,9.7,0,0,0,901,444.13Z" transform="translate(209.7 171.93)"/><path class="cls-6" d="M716.25,609.88a9.65,9.65,0,1,0,9.74-9.59A9.68,9.68,0,0,0,716.25,609.88Z" transform="translate(209.7 171.93)"/><path class="cls-6" d="M776.42,547.21a9.6,9.6,0,1,0,9.62,9.55A9.56,9.56,0,0,0,776.42,547.21Z" transform="translate(209.7 171.93)"/><path class="cls-6" d="M692.78,626.32a9.57,9.57,0,1,0,9.56-9.58A9.51,9.51,0,0,0,692.78,626.32Z" transform="translate(209.7 171.93)"/><path class="cls-6" d="M868,451.07a9.56,9.56,0,1,0,9.62-9.5A9.52,9.52,0,0,0,868,451.07Z" transform="translate(209.7 171.93)"/><path class="cls-6" d="M817.41,503.93A9.57,9.57,0,1,0,827,494.4,9.51,9.51,0,0,0,817.41,503.93Z" transform="translate(209.7 171.93)"/><path class="cls-6" d="M743.36,573.49a9.53,9.53,0,1,0,9.55-9.56A9.47,9.47,0,0,0,743.36,573.49Z" transform="translate(209.7 171.93)"/><path class="cls-6" d="M793.92,520.41a9.51,9.51,0,1,0,9.37-9.58A9.46,9.46,0,0,0,793.92,520.41Z" transform="translate(209.7 171.93)"/><path class="cls-6" d="M669.31,643a9.49,9.49,0,1,0,9.41-9.54A9.45,9.45,0,0,0,669.31,643Z" transform="translate(209.7 171.93)"/><path class="cls-6" d="M854,477a9.49,9.49,0,1,0-9.54-9.41A9.47,9.47,0,0,0,854,477Z" transform="translate(209.7 171.93)"/><path class="cls-6" d="M729.3,580.36a9.48,9.48,0,1,0,9.52,9.43A9.48,9.48,0,0,0,729.3,580.36Z" transform="translate(209.7 171.93)"/><path class="cls-6" d="M770.42,537a9.47,9.47,0,1,0,9.53-9.43A9.49,9.49,0,0,0,770.42,537Z" transform="translate(209.7 171.93)"/><path class="cls-6" d="M871.53,431a9.44,9.44,0,1,0,9.42-9.42A9.49,9.49,0,0,0,871.53,431Z" transform="translate(209.7 171.93)"/><path class="cls-6" d="M830.44,493.32A9.45,9.45,0,1,0,821,484,9.51,9.51,0,0,0,830.44,493.32Z" transform="translate(209.7 171.93)"/><path class="cls-6" d="M715.24,606.08a9.45,9.45,0,1,0-9.28,9.56A9.52,9.52,0,0,0,715.24,606.08Z" transform="translate(209.7 171.93)"/><path class="cls-6" d="M746.92,553.43a9.42,9.42,0,1,0,9.35-9.48A9.49,9.49,0,0,0,746.92,553.43Z" transform="translate(209.7 171.93)"/><path class="cls-6" d="M806.92,491.14a9.39,9.39,0,1,0,9.35,9.46A9.44,9.44,0,0,0,806.92,491.14Z" transform="translate(209.7 171.93)"/><path class="cls-6" d="M682.18,632.2a9.34,9.34,0,1,0-9.28-9.34A9.36,9.36,0,0,0,682.18,632.2Z" transform="translate(209.7 171.93)"/><path class="cls-6" d="M848.08,447.33a9.35,9.35,0,1,0,9.33-9.28A9.35,9.35,0,0,0,848.08,447.33Z" transform="translate(209.7 171.93)"/><path class="cls-6" d="M732.8,560.43a9.31,9.31,0,1,0,9.29,9.32A9.26,9.26,0,0,0,732.8,560.43Z" transform="translate(209.7 171.93)"/><path class="cls-6" d="M774.06,516.85a9.27,9.27,0,1,0,9.35-9.22A9.2,9.2,0,0,0,774.06,516.85Z" transform="translate(209.7 171.93)"/><path class="cls-6" d="M658.68,648.49a9.26,9.26,0,1,0-9.24-9.32A9.2,9.2,0,0,0,658.68,648.49Z" transform="translate(209.7 171.93)"/><path class="cls-6" d="M834.15,473.31a9.26,9.26,0,1,0-9.25-9.3A9.19,9.19,0,0,0,834.15,473.31Z" transform="translate(209.7 171.93)"/><path class="cls-6" d="M884.9,420.16a9.23,9.23,0,1,0-9.43-9A9.17,9.17,0,0,0,884.9,420.16Z" transform="translate(209.7 171.93)"/><path class="cls-6" d="M700,586.32a9.23,9.23,0,1,0,9.23-9.16A9.16,9.16,0,0,0,700,586.32Z" transform="translate(209.7 171.93)"/><path class="cls-6" d="M760,524.05a9.22,9.22,0,1,0,9.3,9.09A9.16,9.16,0,0,0,760,524.05Z" transform="translate(209.7 171.93)"/><path class="cls-6" d="M801.41,480.38a9.2,9.2,0,1,0,9.24-9.16A9.18,9.18,0,0,0,801.41,480.38Z" transform="translate(209.7 171.93)"/><path class="cls-6" d="M861.19,436.77a9.19,9.19,0,1,0-9.22-9.19A9.21,9.21,0,0,0,861.19,436.77Z" transform="translate(209.7 171.93)"/><path class="cls-6" d="M686,593.57a9.19,9.19,0,1,0,9.2,9.2A9.21,9.21,0,0,0,686,593.57Z" transform="translate(209.7 171.93)"/><path class="cls-6" d="M912.45,418.81c-.56-3.69-1.07-7.22-1.64-10.73a2,2,0,0,0-.76-1.1,9.47,9.47,0,1,0,1.67,13.77A6.52,6.52,0,0,0,912.45,418.81Z" transform="translate(209.7 171.93)"/><path class="cls-6" d="M727.35,550a9.17,9.17,0,1,0,9.11-9.2A9.22,9.22,0,0,0,727.35,550Z" transform="translate(209.7 171.93)"/><path class="cls-6" d="M662.45,628.56a9.15,9.15,0,1,0-9.16-9.13A9.22,9.22,0,0,0,662.45,628.56Z" transform="translate(209.7 171.93)"/><path class="cls-6" d="M828.46,443.93a9.15,9.15,0,1,0,9.17-9.12A9.22,9.22,0,0,0,828.46,443.93Z" transform="translate(209.7 171.93)"/><path class="cls-6" d="M777.92,496.76a9.15,9.15,0,1,0,9.18-9.11A9.21,9.21,0,0,0,777.92,496.76Z" transform="translate(209.7 171.93)"/><path class="cls-6" d="M703.86,566.31a9.11,9.11,0,1,0,9.12-9.13A9.18,9.18,0,0,0,703.86,566.31Z" transform="translate(209.7 171.93)"/><path class="cls-6" d="M879,391a9.11,9.11,0,1,0,9.21-9A9.18,9.18,0,0,0,879,391Z" transform="translate(209.7 171.93)"/><path class="cls-6" d="M754.44,513.39a9.08,9.08,0,1,0,9.06-9A9.13,9.13,0,0,0,754.44,513.39Z" transform="translate(209.7 171.93)"/><path class="cls-6" d="M638.83,644.81a9,9,0,1,0-9-9.08A9,9,0,0,0,638.83,644.81Z" transform="translate(209.7 171.93)"/><path class="cls-6" d="M805,460.33a9,9,0,1,0,9-9A9,9,0,0,0,805,460.33Z" transform="translate(209.7 171.93)"/><path class="cls-6" d="M689.24,574a9,9,0,1,0,9.17,8.83A8.92,8.92,0,0,0,689.24,574Z" transform="translate(209.7 171.93)"/><path class="cls-6" d="M864.62,398.5a9,9,0,1,0,9,9A8.92,8.92,0,0,0,864.62,398.5Z" transform="translate(209.7 171.93)"/><path class="cls-6" d="M731,529.88a9,9,0,1,0,8.82-9A8.89,8.89,0,0,0,731,529.88Z" transform="translate(209.7 171.93)"/><path class="cls-6" d="M781.56,477a9,9,0,1,0,8.9-8.93A8.88,8.88,0,0,0,781.56,477Z" transform="translate(209.7 171.93)"/><path class="cls-6" d="M665.81,590.38a8.93,8.93,0,1,0,9,8.87A8.89,8.89,0,0,0,665.81,590.38Z" transform="translate(209.7 171.93)"/><path class="cls-6" d="M832.12,423.86a8.93,8.93,0,1,0,8.92-8.94A8.89,8.89,0,0,0,832.12,423.86Z" transform="translate(209.7 171.93)"/><path class="cls-6" d="M882.68,371a8.91,8.91,0,1,0,9-8.91A8.9,8.9,0,0,0,882.68,371Z" transform="translate(209.7 171.93)"/><path class="cls-6" d="M716.47,555.39a8.92,8.92,0,1,0-9-8.9A8.9,8.9,0,0,0,716.47,555.39Z" transform="translate(209.7 171.93)"/><path class="cls-6" d="M767,502.24a8.9,8.9,0,1,0-8.9-8.83A8.91,8.91,0,0,0,767,502.24Z" transform="translate(209.7 171.93)"/><path class="cls-6" d="M633.45,615.7a8.88,8.88,0,1,0,8.82-8.9A8.93,8.93,0,0,0,633.45,615.7Z" transform="translate(209.7 171.93)"/><path class="cls-6" d="M808.62,440.56a8.88,8.88,0,1,0,8.79-8.93A8.93,8.93,0,0,0,808.62,440.56Z" transform="translate(209.7 171.93)"/><path class="cls-6" d="M743.36,518.86a8.86,8.86,0,1,0-8.8-8.95A8.94,8.94,0,0,0,743.36,518.86Z" transform="translate(209.7 171.93)"/><path class="cls-6" d="M684,562.79a8.86,8.86,0,1,0,8.91-8.81A8.94,8.94,0,0,0,684,562.79Z" transform="translate(209.7 171.93)"/><path class="cls-6" d="M868,396.24a8.86,8.86,0,1,0-8.82-8.89A8.94,8.94,0,0,0,868,396.24Z" transform="translate(209.7 171.93)"/><path class="cls-6" d="M785.13,456.83a8.83,8.83,0,1,0,8.8-8.78A8.9,8.9,0,0,0,785.13,456.83Z" transform="translate(209.7 171.93)"/><path class="cls-6" d="M610,632.3a8.82,8.82,0,1,0,8.79-8.78A8.9,8.9,0,0,0,610,632.3Z" transform="translate(209.7 171.93)"/><path class="cls-6" d="M660.54,579.23a8.78,8.78,0,1,0,8.73-8.8A8.81,8.81,0,0,0,660.54,579.23Z" transform="translate(209.7 171.93)"/><path class="cls-6" d="M835.72,404a8.78,8.78,0,1,0,8.75-8.77A8.81,8.81,0,0,0,835.72,404Z" transform="translate(209.7 171.93)"/><path class="cls-6" d="M711.13,526.33a8.74,8.74,0,1,0,8.77-8.7A8.71,8.71,0,0,0,711.13,526.33Z" transform="translate(209.7 171.93)"/><path class="cls-6" d="M770.42,464.84a8.7,8.7,0,1,0,8.68,8.63A8.63,8.63,0,0,0,770.42,464.84Z" transform="translate(209.7 171.93)"/><path class="cls-6" d="M812.28,420.48a8.67,8.67,0,1,0,8.56-8.74A8.61,8.61,0,0,0,812.28,420.48Z" transform="translate(209.7 171.93)"/><path class="cls-6" d="M645.69,587.2a8.67,8.67,0,1,0,8.75,8.55A8.59,8.59,0,0,0,645.69,587.2Z" transform="translate(209.7 171.93)"/><path class="cls-6" d="M696.25,534.1a8.64,8.64,0,1,0,8.71,8.57A8.58,8.58,0,0,0,696.25,534.1Z" transform="translate(209.7 171.93)"/><path class="cls-6" d="M871.45,376.21a8.65,8.65,0,1,0-8.6-8.68A8.59,8.59,0,0,0,871.45,376.21Z" transform="translate(209.7 171.93)"/><path class="cls-6" d="M738.22,489.94a8.64,8.64,0,1,0,8.6-8.68A8.6,8.6,0,0,0,738.22,489.94Z" transform="translate(209.7 171.93)"/><path class="cls-6" d="M622.19,603.61a8.63,8.63,0,1,0,8.66,8.63A8.61,8.61,0,0,0,622.19,603.61Z" transform="translate(209.7 171.93)"/><path class="cls-6" d="M797.31,428.44A8.62,8.62,0,1,0,806,437,8.61,8.61,0,0,0,797.31,428.44Z" transform="translate(209.7 171.93)"/><path class="cls-6" d="M664.16,559.42a8.61,8.61,0,1,0,8.55-8.63A8.63,8.63,0,0,0,664.16,559.42Z" transform="translate(209.7 171.93)"/><path class="cls-6" d="M848.17,392.54a8.61,8.61,0,1,0-8.55-8.63A8.63,8.63,0,0,0,848.17,392.54Z" transform="translate(209.7 171.93)"/><path class="cls-6" d="M723.63,497.68a8.59,8.59,0,1,0,8.56,8.62A8.65,8.65,0,0,0,723.63,497.68Z" transform="translate(209.7 171.93)"/><path class="cls-6" d="M774.19,444.86a8.57,8.57,0,1,0,8.52,8.65A8.65,8.65,0,0,0,774.19,444.86Z" transform="translate(209.7 171.93)"/><path class="cls-6" d="M816.12,400.64a8.56,8.56,0,1,0,8.45-8.61A8.64,8.64,0,0,0,816.12,400.64Z" transform="translate(209.7 171.93)"/><path class="cls-6" d="M649.43,567.21a8.56,8.56,0,1,0,8.64,8.4A8.64,8.64,0,0,0,649.43,567.21Z" transform="translate(209.7 171.93)"/><path class="cls-6" d="M875.2,338.94a8.53,8.53,0,1,0,8.55,8.46A8.58,8.58,0,0,0,875.2,338.94Z" transform="translate(209.7 171.93)"/><path class="cls-6" d="M700.1,531.45a8.53,8.53,0,1,0-8.57-8.44A8.59,8.59,0,0,0,700.1,531.45Z" transform="translate(209.7 171.93)"/><path class="cls-6" d="M742.11,469.79a8.49,8.49,0,1,0,8.49-8.48A8.5,8.5,0,0,0,742.11,469.79Z" transform="translate(209.7 171.93)"/><path class="cls-6" d="M626,583.7a8.43,8.43,0,1,0,8.37,8.42A8.38,8.38,0,0,0,626,583.7Z" transform="translate(209.7 171.93)"/><path class="cls-6" d="M801.28,425.39a8.43,8.43,0,1,0-8.57-8.21A8.38,8.38,0,0,0,801.28,425.39Z" transform="translate(209.7 171.93)"/><path class="cls-6" d="M851.74,355.73a8.39,8.39,0,1,0,8.33,8.42A8.33,8.33,0,0,0,851.74,355.73Z" transform="translate(209.7 171.93)"/><path class="cls-6" d="M668.11,539.29a8.4,8.4,0,1,0,8.36-8.39A8.33,8.33,0,0,0,668.11,539.29Z" transform="translate(209.7 171.93)"/><path class="cls-6" d="M590.11,628.66c.14,2.32.63,4.3,3.25,5.22,1.79.63,3.37,1.85,5.11,2.63a4.16,4.16,0,0,0,2.55.27,8.44,8.44,0,0,0,6-9.86,8.55,8.55,0,0,0-16.93,1.74Z" transform="translate(209.7 171.93)"/><path class="cls-6" d="M594.05,608.81a8.36,8.36,0,1,0,8.34-8.38A8.3,8.3,0,0,0,594.05,608.81Z" transform="translate(209.7 171.93)"/><path class="cls-6" d="M718.68,486.48a8.37,8.37,0,1,0,8.34-8.39A8.3,8.3,0,0,0,718.68,486.48Z" transform="translate(209.7 171.93)"/><path class="cls-6" d="M769.24,433.36a8.35,8.35,0,1,0,8.35-8.38A8.31,8.31,0,0,0,769.24,433.36Z" transform="translate(209.7 171.93)"/><path class="cls-6" d="M836.47,380.4a8.34,8.34,0,1,0-8.18,8.43A8.31,8.31,0,0,0,836.47,380.4Z" transform="translate(209.7 171.93)"/><path class="cls-6" d="M661.3,555.59a8.35,8.35,0,1,0-8.2,8.41A8.33,8.33,0,0,0,661.3,555.59Z" transform="translate(209.7 171.93)"/><path class="cls-6" d="M695.17,503a8.33,8.33,0,1,0,8.16-8.45A8.33,8.33,0,0,0,695.17,503Z" transform="translate(209.7 171.93)"/><path class="cls-6" d="M745.73,449.92a8.31,8.31,0,1,0,8.37-8.25A8.35,8.35,0,0,0,745.73,449.92Z" transform="translate(209.7 171.93)"/><path class="cls-6" d="M804.59,405.14a8.29,8.29,0,1,0-8.3-8.31A8.36,8.36,0,0,0,804.59,405.14Z" transform="translate(209.7 171.93)"/><path class="cls-6" d="M637.69,572.31a8.29,8.29,0,1,0-8.31,8.29A8.35,8.35,0,0,0,637.69,572.31Z" transform="translate(209.7 171.93)"/><path class="cls-6" d="M846.87,344.07a8.26,8.26,0,1,0,8.17-8.31A8.32,8.32,0,0,0,846.87,344.07Z" transform="translate(209.7 171.93)"/><path class="cls-6" d="M671.69,519.18a8.26,8.26,0,1,0,8.24-8.24A8.33,8.33,0,0,0,671.69,519.18Z" transform="translate(209.7 171.93)"/><path class="cls-6" d="M781.24,421.71a8.2,8.2,0,1,0-8.41-8A8.21,8.21,0,0,0,781.24,421.71Z" transform="translate(209.7 171.93)"/><path class="cls-6" d="M614.06,588.71a8.21,8.21,0,1,0-8.26,8.18A8.23,8.23,0,0,0,614.06,588.71Z" transform="translate(209.7 171.93)"/><path class="cls-6" d="M722.28,466.56a8.21,8.21,0,1,0,8-8.42A8.24,8.24,0,0,0,722.28,466.56Z" transform="translate(209.7 171.93)"/><path class="cls-6" d="M648.24,535.8a8.16,8.16,0,1,0,8.13-8.11A8.12,8.12,0,0,0,648.24,535.8Z" transform="translate(209.7 171.93)"/><path class="cls-6" d="M823.43,360.34a8.15,8.15,0,1,0,8.12-8.1A8.09,8.09,0,0,0,823.43,360.34Z" transform="translate(209.7 171.93)"/><path class="cls-6" d="M706.88,490.83a8.11,8.11,0,1,0-8-8.14A8.05,8.05,0,0,0,706.88,490.83Z" transform="translate(209.7 171.93)"/><path class="cls-6" d="M749.4,429.92a8.09,8.09,0,1,0,8.08-8.12A8,8,0,0,0,749.4,429.92Z" transform="translate(209.7 171.93)"/><path class="cls-6" d="M582.34,597.26a8.09,8.09,0,1,0,8,8.15A8,8,0,0,0,582.34,597.26Z" transform="translate(209.7 171.93)"/><path class="cls-6" d="M808.08,385.1a8.06,8.06,0,1,0-8.11-7.94A8,8,0,0,0,808.08,385.1Z" transform="translate(209.7 171.93)"/><path class="cls-6" d="M624.79,552.25a8.06,8.06,0,1,0,8-8.1A8,8,0,0,0,624.79,552.25Z" transform="translate(209.7 171.93)"/><path class="cls-6" d="M733.92,438.21a8,8,0,1,0,8.05,8A8,8,0,0,0,733.92,438.21Z" transform="translate(209.7 171.93)"/><path class="cls-6" d="M850.53,324a8,8,0,1,0,7.93-8.11A8,8,0,0,0,850.53,324Z" transform="translate(209.7 171.93)"/><path class="cls-6" d="M675.35,499.34a8,8,0,1,0,8-8A8,8,0,0,0,675.35,499.34Z" transform="translate(209.7 171.93)"/><path class="cls-6" d="M776.45,393.4a8,8,0,1,0,8-8A8.07,8.07,0,0,0,776.45,393.4Z" transform="translate(209.7 171.93)"/><path class="cls-6" d="M601.28,568.83a8,8,0,1,0,8.07-8A8.07,8.07,0,0,0,601.28,568.83Z" transform="translate(209.7 171.93)"/><path class="cls-6" d="M827,340.52a8,8,0,1,0,8-7.95A8.07,8.07,0,0,0,827,340.52Z" transform="translate(209.7 171.93)"/><path class="cls-6" d="M659.82,523.75a8,8,0,1,0-8-8A8.09,8.09,0,0,0,659.82,523.75Z" transform="translate(209.7 171.93)"/><path class="cls-6" d="M702.42,462.86a8,8,0,1,0,8-7.92A8,8,0,0,0,702.42,462.86Z" transform="translate(209.7 171.93)"/><path class="cls-6" d="M753,409.82a7.93,7.93,0,1,0,7.93-8A8,8,0,0,0,753,409.82Z" transform="translate(209.7 171.93)"/><path class="cls-6" d="M593.68,585.12a7.93,7.93,0,1,0-7.84,8A8,8,0,0,0,593.68,585.12Z" transform="translate(209.7 171.93)"/><path class="cls-6" d="M803.89,357a7.87,7.87,0,1,0,7.77-7.9A7.84,7.84,0,0,0,803.89,357Z" transform="translate(209.7 171.93)"/><path class="cls-6" d="M679.27,479.24a7.86,7.86,0,1,0,7.85-7.82A7.81,7.81,0,0,0,679.27,479.24Z" transform="translate(209.7 171.93)"/><path class="cls-6" d="M745.49,426.36a7.82,7.82,0,1,0-7.74,7.9A7.75,7.75,0,0,0,745.49,426.36Z" transform="translate(209.7 171.93)"/><path class="cls-6" d="M628.43,532.38a7.87,7.87,0,1,0,7.82-7.85A7.82,7.82,0,0,0,628.43,532.38Z" transform="translate(209.7 171.93)"/><path class="cls-6" d="M562.21,593.82a7.79,7.79,0,1,0,7.79,7.83A7.71,7.71,0,0,0,562.21,593.82Z" transform="translate(209.7 171.93)"/><path class="cls-6" d="M605.25,548.76a7.79,7.79,0,1,0,7.84-7.78A7.72,7.72,0,0,0,605.25,548.76Z" transform="translate(209.7 171.93)"/><path class="cls-6" d="M780.42,373.32a7.79,7.79,0,1,0,7.81-7.8A7.72,7.72,0,0,0,780.42,373.32Z" transform="translate(209.7 171.93)"/><path class="cls-6" d="M838.74,312.7a7.77,7.77,0,1,0,7.78,7.72A7.73,7.73,0,0,0,838.74,312.7Z" transform="translate(209.7 171.93)"/><path class="cls-6" d="M655.81,495.93a7.77,7.77,0,1,0,7.73-7.77A7.73,7.73,0,0,0,655.81,495.93Z" transform="translate(209.7 171.93)"/><path class="cls-6" d="M714.06,435.05a7.76,7.76,0,1,0,7.81,7.69A7.77,7.77,0,0,0,714.06,435.05Z" transform="translate(209.7 171.93)"/><path class="cls-6" d="M589.49,557.41a7.73,7.73,0,1,0,7.73,7.76A7.77,7.77,0,0,0,589.49,557.41Z" transform="translate(209.7 171.93)"/><path class="cls-6" d="M756.93,390a7.74,7.74,0,1,0,7.7-7.8A7.79,7.79,0,0,0,756.93,390Z" transform="translate(209.7 171.93)"/><path class="cls-6" d="M640,504.57a7.73,7.73,0,1,0,7.75,7.64A7.79,7.79,0,0,0,640,504.57Z" transform="translate(209.7 171.93)"/><path class="cls-6" d="M815.21,344.54a7.71,7.71,0,1,0-7.71-7.67A7.78,7.78,0,0,0,815.21,344.54Z" transform="translate(209.7 171.93)"/><path class="cls-6" d="M690.62,466.88a7.71,7.71,0,1,0-7.75-7.62A7.78,7.78,0,0,0,690.62,466.88Z" transform="translate(209.7 171.93)"/><path class="cls-6" d="M558.27,581.79a7.67,7.67,0,1,0,7.68-7.67A7.74,7.74,0,0,0,558.27,581.79Z" transform="translate(209.7 171.93)"/><path class="cls-6" d="M741.13,398.66a7.68,7.68,0,1,0,7.66,7.69A7.74,7.74,0,0,0,741.13,398.66Z" transform="translate(209.7 171.93)"/><path class="cls-6" d="M616.42,536.29a7.62,7.62,0,1,0-7.56-7.62A7.63,7.63,0,0,0,616.42,536.29Z" transform="translate(209.7 171.93)"/><path class="cls-6" d="M784,353.67a7.62,7.62,0,1,0,7.37-7.79A7.62,7.62,0,0,0,784,353.67Z" transform="translate(209.7 171.93)"/><path class="cls-6" d="M667.09,468.27a7.56,7.56,0,1,0,7.5,7.62A7.5,7.5,0,0,0,667.09,468.27Z" transform="translate(209.7 171.93)"/><path class="cls-6" d="M834.64,300.42a7.56,7.56,0,1,0,7.51-7.61A7.5,7.5,0,0,0,834.64,300.42Z" transform="translate(209.7 171.93)"/><path class="cls-6" d="M725.09,422.63a7.52,7.52,0,1,0-7.49,7.59A7.45,7.45,0,0,0,725.09,422.63Z" transform="translate(209.7 171.93)"/><path class="cls-6" d="M811.16,317a7.5,7.5,0,1,0,7.42-7.5A7.45,7.45,0,0,0,811.16,317Z" transform="translate(209.7 171.93)"/><path class="cls-6" d="M643.51,499.69A7.5,7.5,0,1,0,636,492.3,7.44,7.44,0,0,0,643.51,499.69Z" transform="translate(209.7 171.93)"/><path class="cls-6" d="M768.14,362.37a7.5,7.5,0,1,0,7.47,7.45A7.46,7.46,0,0,0,768.14,362.37Z" transform="translate(209.7 171.93)"/><path class="cls-6" d="M585.44,545.35a7.5,7.5,0,1,0,7.4-7.52A7.45,7.45,0,0,0,585.44,545.35Z" transform="translate(209.7 171.93)"/><path class="cls-6" d="M569.41,569.15a7.46,7.46,0,1,0-7.48-7.47A7.49,7.49,0,0,0,569.41,569.15Z" transform="translate(209.7 171.93)"/><path class="cls-6" d="M744.6,378.78a7.46,7.46,0,1,0,7.42,7.53A7.48,7.48,0,0,0,744.6,378.78Z" transform="translate(209.7 171.93)"/><path class="cls-6" d="M686.55,439.41a7.47,7.47,0,1,0,7.41-7.53A7.46,7.46,0,0,0,686.55,439.41Z" transform="translate(209.7 171.93)"/><path class="cls-6" d="M612.5,508.88a7.43,7.43,0,1,0,7.36-7.46A7.49,7.49,0,0,0,612.5,508.88Z" transform="translate(209.7 171.93)"/><path class="cls-6" d="M787.67,333.36a7.44,7.44,0,1,0,7.43-7.4A7.5,7.5,0,0,0,787.67,333.36Z" transform="translate(209.7 171.93)"/><path class="cls-6" d="M670.45,448.33a7.4,7.4,0,1,0,7.42,7.38A7.47,7.47,0,0,0,670.45,448.33Z" transform="translate(209.7 171.93)"/><path class="cls-6" d="M545.88,570.71a7.35,7.35,0,1,0,7.31,7.32A7.38,7.38,0,0,0,545.88,570.71Z" transform="translate(209.7 171.93)"/><path class="cls-6" d="M596.33,517.87a7.35,7.35,0,1,0,7.4,7.23A7.39,7.39,0,0,0,596.33,517.87Z" transform="translate(209.7 171.93)"/><path class="cls-6" d="M721.06,395.53a7.36,7.36,0,1,0,7.31,7.33A7.4,7.4,0,0,0,721.06,395.53Z" transform="translate(209.7 171.93)"/><path class="cls-6" d="M822.12,304.21a7.29,7.29,0,1,0-7.31-7.27A7.25,7.25,0,0,0,822.12,304.21Z" transform="translate(209.7 171.93)"/><path class="cls-6" d="M771.62,342.47a7.29,7.29,0,1,0,7.22,7.36A7.25,7.25,0,0,0,771.62,342.47Z" transform="translate(209.7 171.93)"/><path class="cls-6" d="M639.63,472.39a7.29,7.29,0,1,0,7.29-7.3A7.25,7.25,0,0,0,639.63,472.39Z" transform="translate(209.7 171.93)"/><path class="cls-6" d="M697.43,426.5a7.25,7.25,0,1,0-7.21-7.32A7.17,7.17,0,0,0,697.43,426.5Z" transform="translate(209.7 171.93)"/><path class="cls-6" d="M740.79,366.35A7.22,7.22,0,1,0,748,359.2,7.16,7.16,0,0,0,740.79,366.35Z" transform="translate(209.7 171.93)"/><path class="cls-6" d="M572.84,548.8a7.21,7.21,0,1,0-7.22-7.17A7.16,7.16,0,0,0,572.84,548.8Z" transform="translate(209.7 171.93)"/><path class="cls-6" d="M791.36,313.37a7.19,7.19,0,1,0,7.11-7.27A7.17,7.17,0,0,0,791.36,313.37Z" transform="translate(209.7 171.93)"/><path class="cls-6" d="M616.18,488.74a7.2,7.2,0,1,0,7.21-7.18A7.17,7.17,0,0,0,616.18,488.74Z" transform="translate(209.7 171.93)"/><path class="cls-6" d="M666.75,436a7.17,7.17,0,1,0,7-7.22A7.19,7.19,0,0,0,666.75,436Z" transform="translate(209.7 171.93)"/><path class="cls-6" d="M768.14,330a7.15,7.15,0,1,0,7.1-7.16A7.21,7.21,0,0,0,768.14,330Z" transform="translate(209.7 171.93)"/><path class="cls-6" d="M592.68,505.06a7.15,7.15,0,1,0,7.18-7.09A7.21,7.21,0,0,0,592.68,505.06Z" transform="translate(209.7 171.93)"/><path class="cls-6" d="M717.31,382.8a7.15,7.15,0,1,0,7.1-7.16A7.22,7.22,0,0,0,717.31,382.8Z" transform="translate(209.7 171.93)"/><path class="cls-6" d="M542.13,558.24a7.16,7.16,0,1,0,7.13-7.15A7.21,7.21,0,0,0,542.13,558.24Z" transform="translate(209.7 171.93)"/><path class="cls-6" d="M825.83,269.7a7.12,7.12,0,1,0,7.12,7.15A7.19,7.19,0,0,0,825.83,269.7Z" transform="translate(209.7 171.93)"/><path class="cls-6" d="M643.54,452.24a7.12,7.12,0,1,0,7.19-7.07A7.19,7.19,0,0,0,643.54,452.24Z" transform="translate(209.7 171.93)"/><path class="cls-6" d="M694.13,399.48a7.07,7.07,0,1,0,7-7.11A7.11,7.11,0,0,0,694.13,399.48Z" transform="translate(209.7 171.93)"/><path class="cls-6" d="M744.74,346.25a7,7,0,1,0,7.07-6.94A7,7,0,0,0,744.74,346.25Z" transform="translate(209.7 171.93)"/><path class="cls-6" d="M576.52,514.77a7,7,0,1,0,7.05,7A7,7,0,0,0,576.52,514.77Z" transform="translate(209.7 171.93)"/><path class="cls-6" d="M795.33,293.52a7,7,0,1,0,6.83-7A6.89,6.89,0,0,0,795.33,293.52Z" transform="translate(209.7 171.93)"/><path class="cls-6" d="M627.05,475.61a7,7,0,1,0-6.9-6.95A6.9,6.9,0,0,0,627.05,475.61Z" transform="translate(209.7 171.93)"/><path class="cls-6" d="M728.24,369.89a6.92,6.92,0,1,0-7-6.83A6.87,6.87,0,0,0,728.24,369.89Z" transform="translate(209.7 171.93)"/><path class="cls-6" d="M677.7,408.88a6.93,6.93,0,1,0,6.88,6.95A6.87,6.87,0,0,0,677.7,408.88Z" transform="translate(209.7 171.93)"/><path class="cls-6" d="M553.08,545.07a6.93,6.93,0,1,0-7-6.83A6.87,6.87,0,0,0,553.08,545.07Z" transform="translate(209.7 171.93)"/><path class="cls-6" d="M778.77,316.75a6.91,6.91,0,1,0-6.94-6.91A6.9,6.9,0,0,0,778.77,316.75Z" transform="translate(209.7 171.93)"/><path class="cls-6" d="M603.53,478.4a6.91,6.91,0,1,0,6.93,6.91A6.9,6.9,0,0,0,603.53,478.4Z" transform="translate(209.7 171.93)"/><path class="cls-6" d="M647.22,432.15a6.88,6.88,0,1,0,6.84-6.85A6.92,6.92,0,0,0,647.22,432.15Z" transform="translate(209.7 171.93)"/><path class="cls-6" d="M529.5,561.37a6.86,6.86,0,1,0-6.88-6.83A6.91,6.91,0,0,0,529.5,561.37Z" transform="translate(209.7 171.93)"/><path class="cls-6" d="M697.79,379.33a6.86,6.86,0,1,0,6.86-6.84A6.92,6.92,0,0,0,697.79,379.33Z" transform="translate(209.7 171.93)"/><path class="cls-6" d="M580.06,494.86a6.82,6.82,0,1,0,6.77,6.79A6.88,6.88,0,0,0,580.06,494.86Z" transform="translate(209.7 171.93)"/><path class="cls-6" d="M748.37,326.48a6.82,6.82,0,1,0,6.76-6.8A6.89,6.89,0,0,0,748.37,326.48Z" transform="translate(209.7 171.93)"/><path class="cls-6" d="M630.59,455.61a6.78,6.78,0,1,0-6.81-6.7A6.82,6.82,0,0,0,630.59,455.61Z" transform="translate(209.7 171.93)"/><path class="cls-6" d="M805.77,266.6a6.78,6.78,0,1,0,6.73,6.77A6.81,6.81,0,0,0,805.77,266.6Z" transform="translate(209.7 171.93)"/><path class="cls-6" d="M681.16,402.47a6.76,6.76,0,1,0-6.82-6.7A6.79,6.79,0,0,0,681.16,402.47Z" transform="translate(209.7 171.93)"/><path class="cls-6" d="M549.77,518a6.7,6.7,0,1,0,6.8-6.64A6.64,6.64,0,0,0,549.77,518Z" transform="translate(209.7 171.93)"/><path class="cls-6" d="M724.94,342.9a6.7,6.7,0,1,0,6.71-6.73A6.65,6.65,0,0,0,724.94,342.9Z" transform="translate(209.7 171.93)"/><path class="cls-6" d="M906.24,385.5a9.2,9.2,0,1,0,4,17.95Q908.24,394.48,906.24,385.5Z" transform="translate(209.7 171.93)"/><path class="cls-6" d="M600.35,465.27a6.66,6.66,0,1,0,6.55-6.72A6.6,6.6,0,0,0,600.35,465.27Z" transform="translate(209.7 171.93)"/><path class="cls-6" d="M775.52,290.09a6.66,6.66,0,1,0,6.57-6.72A6.61,6.61,0,0,0,775.52,290.09Z" transform="translate(209.7 171.93)"/><path class="cls-6" d="M650.92,412.45a6.63,6.63,0,1,0,6.58-6.71A6.6,6.6,0,0,0,650.92,412.45Z" transform="translate(209.7 171.93)"/><path class="cls-6" d="M526.31,534.71a6.61,6.61,0,1,0,6.53-6.62A6.61,6.61,0,0,0,526.31,534.71Z" transform="translate(209.7 171.93)"/><path class="cls-6" d="M701.49,359.27a6.61,6.61,0,1,0,6.49-6.64A6.6,6.6,0,0,0,701.49,359.27Z" transform="translate(209.7 171.93)"/><path class="cls-6" d="M884.43,333.26l-8.6-13.62a8.2,8.2,0,0,0-5.46,7.51,8.31,8.31,0,0,0,4.91,7.77A8.15,8.15,0,0,0,884.43,333.26Z" transform="translate(209.7 171.93)"/><path class="cls-6" d="M583.42,488.16a6.59,6.59,0,1,0-6.55-6.63A6.63,6.63,0,0,0,583.42,488.16Z" transform="translate(209.7 171.93)"/><path class="cls-6" d="M633.94,435.31a6.58,6.58,0,1,0-6.52-6.64A6.62,6.62,0,0,0,633.94,435.31Z" transform="translate(209.7 171.93)"/><path class="cls-6" d="M758.76,313a6.59,6.59,0,1,0-6.71-6.46A6.62,6.62,0,0,0,758.76,313Z" transform="translate(209.7 171.93)"/><path class="cls-6" d="M684.61,369.34a6.55,6.55,0,1,0,6.48,6.55A6.62,6.62,0,0,0,684.61,369.34Z" transform="translate(209.7 171.93)"/><path class="cls-6" d="M728.59,323a6.5,6.5,0,1,0,6.31-6.69A6.55,6.55,0,0,0,728.59,323Z" transform="translate(209.7 171.93)"/><path class="cls-6" d="M553.41,498.17a6.5,6.5,0,1,0,6.56-6.44A6.56,6.56,0,0,0,553.41,498.17Z" transform="translate(209.7 171.93)"/><path class="cls-6" d="M779.2,270a6.43,6.43,0,1,0,6.43-6.45A6.38,6.38,0,0,0,779.2,270Z" transform="translate(209.7 171.93)"/><path class="cls-6" d="M610.42,438.67a6.43,6.43,0,1,0,6.46,6.43A6.4,6.4,0,0,0,610.42,438.67Z" transform="translate(209.7 171.93)"/><path class="cls-6" d="M654.62,392.25a6.38,6.38,0,1,0,6.35-6.37A6.3,6.3,0,0,0,654.62,392.25Z" transform="translate(209.7 171.93)"/><path class="cls-6" d="M530,514.59a6.35,6.35,0,1,0,6.36-6.35A6.3,6.3,0,0,0,530,514.59Z" transform="translate(209.7 171.93)"/><path class="cls-6" d="M711.63,345.77a6.35,6.35,0,1,0-6.44-6.26A6.29,6.29,0,0,0,711.63,345.77Z" transform="translate(209.7 171.93)"/><path class="cls-6" d="M586.94,455.41a6.35,6.35,0,1,0,6.31,6.42A6.3,6.3,0,0,0,586.94,455.41Z" transform="translate(209.7 171.93)"/><path class="cls-6" d="M755.75,286.23a6.33,6.33,0,1,0,6.33-6.26A6.31,6.31,0,0,0,755.75,286.23Z" transform="translate(209.7 171.93)"/><path class="cls-6" d="M637.38,415a6.32,6.32,0,1,0-6.25-6.32A6.32,6.32,0,0,0,637.38,415Z" transform="translate(209.7 171.93)"/><path class="cls-6" d="M512.86,537.55a6.3,6.3,0,1,0-6.34-6.25A6.34,6.34,0,0,0,512.86,537.55Z" transform="translate(209.7 171.93)"/><path class="cls-6" d="M681.69,355.8a6.3,6.3,0,1,0,6.29-6.31A6.35,6.35,0,0,0,681.69,355.8Z" transform="translate(209.7 171.93)"/><path class="cls-6" d="M557.09,478.08a6.27,6.27,0,1,0,6.24-6.22A6.34,6.34,0,0,0,557.09,478.08Z" transform="translate(209.7 171.93)"/><path class="cls-6" d="M732.55,303a6.27,6.27,0,1,0,6.2-6.26A6.36,6.36,0,0,0,732.55,303Z" transform="translate(209.7 171.93)"/><path class="cls-6" d="M614,431.5a6.22,6.22,0,1,0-6.28-6.15A6.27,6.27,0,0,0,614,431.5Z" transform="translate(209.7 171.93)"/><path class="cls-6" d="M658.57,372.17a6.16,6.16,0,1,0,6.19-6.17A6.13,6.13,0,0,0,658.57,372.17Z" transform="translate(209.7 171.93)"/><path class="cls-6" d="M534,495a6.14,6.14,0,1,0,5.88-6.32A6.09,6.09,0,0,0,534,495Z" transform="translate(209.7 171.93)"/><path class="cls-6" d="M709.13,319.5a6.14,6.14,0,1,0,5.89-6.32A6.1,6.1,0,0,0,709.13,319.5Z" transform="translate(209.7 171.93)"/><path class="cls-6" d="M759.72,266.49a6.09,6.09,0,1,0,6.08-6.1A6,6,0,0,0,759.72,266.49Z" transform="translate(209.7 171.93)"/><path class="cls-6" d="M590.64,447.75a6.1,6.1,0,1,0-6.09-6.09A6,6,0,0,0,590.64,447.75Z" transform="translate(209.7 171.93)"/><path class="cls-6" d="M868.18,309.16l-9.76-11.71a7.32,7.32,0,0,0-3.92,7.31,7.78,7.78,0,0,0,5.35,6.79A7.63,7.63,0,0,0,868.18,309.16Z" transform="translate(209.7 171.93)"/><path class="cls-6" d="M516.66,517.18a6,6,0,1,0-6.14-5.88A6,6,0,0,0,516.66,517.18Z" transform="translate(209.7 171.93)"/><path class="cls-6" d="M691.81,341.72a6,6,0,1,0-6.12-5.91A6,6,0,0,0,691.81,341.72Z" transform="translate(209.7 171.93)"/><path class="cls-6" d="M641.16,394.87a6.06,6.06,0,1,0-6-6.12A6,6,0,0,0,641.16,394.87Z" transform="translate(209.7 171.93)"/><path class="cls-6" d="M561.08,458.33a6,6,0,1,0,6-6A6.06,6.06,0,0,0,561.08,458.33Z" transform="translate(209.7 171.93)"/><path class="cls-6" d="M736.26,282.82a6,6,0,1,0,6.07-6A6.05,6.05,0,0,0,736.26,282.82Z" transform="translate(209.7 171.93)"/><path class="cls-6" d="M617.6,399.21a6,6,0,1,0,6,5.91A6.06,6.06,0,0,0,617.6,399.21Z" transform="translate(209.7 171.93)"/><path class="cls-6" d="M662.25,352.39a5.93,5.93,0,1,0,5.91-6A6,6,0,0,0,662.25,352.39Z" transform="translate(209.7 171.93)"/><path class="cls-6" d="M718.91,305.13a5.91,5.91,0,1,0-6.1-5.76A5.94,5.94,0,0,0,718.91,305.13Z" transform="translate(209.7 171.93)"/><path class="cls-6" d="M537.64,474.89a5.91,5.91,0,1,0,5.73-6.12A5.92,5.92,0,0,0,537.64,474.89Z" transform="translate(209.7 171.93)"/><path class="cls-6" d="M571.91,620.86c4.37,2.75,8.66,5.4,12.88,8.16.91.59,1.17.41,1.56-.42a8.23,8.23,0,0,0-3.5-10.64A8.15,8.15,0,0,0,571.91,620.86Z" transform="translate(209.7 171.93)"/><path class="cls-6" d="M763.42,246.44a5.84,5.84,0,1,0,5.74-5.9A5.79,5.79,0,0,0,763.42,246.44Z" transform="translate(209.7 171.93)"/><path class="cls-6" d="M588.25,421.86A5.84,5.84,0,1,0,594,416,5.79,5.79,0,0,0,588.25,421.86Z" transform="translate(209.7 171.93)"/><path class="cls-6" d="M644.66,362.92a5.79,5.79,0,1,0,5.76,5.87A5.73,5.73,0,0,0,644.66,362.92Z" transform="translate(209.7 171.93)"/><path class="cls-6" d="M689.41,315.88a5.76,5.76,0,1,0,5.71-5.76A5.71,5.71,0,0,0,689.41,315.88Z" transform="translate(209.7 171.93)"/><path class="cls-6" d="M514.24,491a5.76,5.76,0,1,0,5.76-5.71A5.72,5.72,0,0,0,514.24,491Z" transform="translate(209.7 171.93)"/><path class="cls-6" d="M745.69,257a5.74,5.74,0,1,0,5.76,5.72A5.75,5.75,0,0,0,745.69,257Z" transform="translate(209.7 171.93)"/><path class="cls-6" d="M564.8,438.24a5.74,5.74,0,1,0,5.7-5.77A5.75,5.75,0,0,0,564.8,438.24Z" transform="translate(209.7 171.93)"/><path class="cls-6" d="M783.1,249.65a6.36,6.36,0,0,0,6.14,6.44,6.26,6.26,0,0,0,6.34-6.08,2,2,0,0,0-.89-1.51c-2.57-1.35-5.2-2.59-7.84-3.8a1.45,1.45,0,0,0-1.23.16A6.1,6.1,0,0,0,783.1,249.65Z" transform="translate(209.7 171.93)"/><path class="cls-6" d="M626.79,385.42a5.71,5.71,0,1,0-5.69,5.66A5.77,5.77,0,0,0,626.79,385.42Z" transform="translate(209.7 171.93)"/><path class="cls-6" d="M520.28,570.17,528.69,581a7,7,0,0,0,4.16-6.61,7.16,7.16,0,0,0-4.87-6.46A6.9,6.9,0,0,0,520.28,570.17Z" transform="translate(209.7 171.93)"/><path class="cls-6" d="M490.74,507.7a5.71,5.71,0,1,0,5.67-5.7A5.79,5.79,0,0,0,490.74,507.7Z" transform="translate(209.7 171.93)"/><path class="cls-6" d="M671.57,326.54a5.71,5.71,0,1,0,5.75,5.62A5.78,5.78,0,0,0,671.57,326.54Z" transform="translate(209.7 171.93)"/><path class="cls-6" d="M716.51,279.43a5.66,5.66,0,1,0,5.66-5.68A5.72,5.72,0,0,0,716.51,279.43Z" transform="translate(209.7 171.93)"/><path class="cls-6" d="M541.33,454.57a5.66,5.66,0,1,0,5.71-5.65A5.72,5.72,0,0,0,541.33,454.57Z" transform="translate(209.7 171.93)"/><path class="cls-6" d="M592,401.79a5.58,5.58,0,1,0,5.49-5.63A5.54,5.54,0,0,0,592,401.79Z" transform="translate(209.7 171.93)"/><path class="cls-6" d="M648.05,343.38a5.52,5.52,0,1,0,5.54,5.53A5.45,5.45,0,0,0,648.05,343.38Z" transform="translate(209.7 171.93)"/><path class="cls-6" d="M698.68,290.29a5.49,5.49,0,1,0,5.42,5.47A5.43,5.43,0,0,0,698.68,290.29Z" transform="translate(209.7 171.93)"/><path class="cls-6" d="M518,471.18a5.49,5.49,0,1,0,5.46-5.43A5.42,5.42,0,0,0,518,471.18Z" transform="translate(209.7 171.93)"/><path class="cls-6" d="M909.14,486.86c1-6.23,2-12.3,3-18.43-3.63.09-7.16,3.56-8.08,7.66A9.9,9.9,0,0,0,909.14,486.86Z" transform="translate(209.7 171.93)"/><path class="cls-6" d="M897.25,359.14c-2.38-5.16-4.71-10.22-7.06-15.29a8.52,8.52,0,0,0,7.06,15.29Z" transform="translate(209.7 171.93)"/><path class="cls-6" d="M574,423.56a5.46,5.46,0,1,0-5.48-5.42A5.46,5.46,0,0,0,574,423.56Z" transform="translate(209.7 171.93)"/><path class="cls-6" d="M494.47,487.54a5.43,5.43,0,1,0,5.45-5.36A5.48,5.48,0,0,0,494.47,487.54Z" transform="translate(209.7 171.93)"/><path class="cls-6" d="M675.06,306.72a5.42,5.42,0,1,0,5.43,5.38A5.49,5.49,0,0,0,675.06,306.72Z" transform="translate(209.7 171.93)"/><path class="cls-6" d="M749.09,237.48a5.46,5.46,0,1,0,5.52,5.39A5.46,5.46,0,0,0,749.09,237.48Z" transform="translate(209.7 171.93)"/><path class="cls-6" d="M624.47,370.7a5.43,5.43,0,1,0-5.38-5.41A5.48,5.48,0,0,0,624.47,370.7Z" transform="translate(209.7 171.93)"/><path class="cls-6" d="M545.06,434.72a5.38,5.38,0,1,0,5.45-5.33A5.45,5.45,0,0,0,545.06,434.72Z" transform="translate(209.7 171.93)"/><path class="cls-6" d="M725.59,253.93a5.38,5.38,0,1,0,5.39,5.39A5.44,5.44,0,0,0,725.59,253.93Z" transform="translate(209.7 171.93)"/><path class="cls-6" d="M601,376.34a5.3,5.3,0,1,0,5.31,5.25A5.27,5.27,0,0,0,601,376.34Z" transform="translate(209.7 171.93)"/><path class="cls-6" d="M656.76,328.71a5.24,5.24,0,1,0-5.19,5.33A5.18,5.18,0,0,0,656.76,328.71Z" transform="translate(209.7 171.93)"/><path class="cls-6" d="M526.82,445.93a5.2,5.2,0,1,0,5.26,5.1A5.14,5.14,0,0,0,526.82,445.93Z" transform="translate(209.7 171.93)"/><path class="cls-6" d="M702.41,280.87a5.2,5.2,0,1,0-5.26-5.1A5.14,5.14,0,0,0,702.41,280.87Z" transform="translate(209.7 171.93)"/><path class="cls-6" d="M628.27,350.33a5.17,5.17,0,1,0-5.17-5.18A5.17,5.17,0,0,0,628.27,350.33Z" transform="translate(209.7 171.93)"/><path class="cls-6" d="M577.49,403.46a5.17,5.17,0,1,0-5.23-5.14A5.17,5.17,0,0,0,577.49,403.46Z" transform="translate(209.7 171.93)"/><path class="cls-6" d="M505.16,546.06c1,1.92,2,3.83,3.1,5.68s2.19,3.57,3.29,5.34a6,6,0,0,0,4.34-5.14,6.61,6.61,0,0,0-3.08-6.47C510.43,544,507.73,544.18,505.16,546.06Z" transform="translate(209.7 171.93)"/><path class="cls-6" d="M678.85,297.46a5.13,5.13,0,1,0-5.18-5.08A5.22,5.22,0,0,0,678.85,297.46Z" transform="translate(209.7 171.93)"/><path class="cls-6" d="M498.5,467.54a5.13,5.13,0,1,0,5.09-5.17A5.19,5.19,0,0,0,498.5,467.54Z" transform="translate(209.7 171.93)"/><path class="cls-6" d="M724.25,239.18a5.09,5.09,0,1,0,5.15-5.07A5.16,5.16,0,0,0,724.25,239.18Z" transform="translate(209.7 171.93)"/><path class="cls-6" d="M549.08,414.7a5.09,5.09,0,1,0,5.09-5.13A5.16,5.16,0,0,0,549.08,414.7Z" transform="translate(209.7 171.93)"/><path class="cls-6" d="M604.77,366.83a5,5,0,1,0-5.06-4.95A5,5,0,0,0,604.77,366.83Z" transform="translate(209.7 171.93)"/><path class="cls-6" d="M655.18,313.63a4.94,4.94,0,1,0-4.87-4.93A4.86,4.86,0,0,0,655.18,313.63Z" transform="translate(209.7 171.93)"/><path class="cls-6" d="M705.73,251a4.9,4.9,0,1,0,5,4.83A4.87,4.87,0,0,0,705.73,251Z" transform="translate(209.7 171.93)"/><path class="cls-6" d="M525.72,431.09a4.9,4.9,0,1,0,4.84-5A4.86,4.86,0,0,0,525.72,431.09Z" transform="translate(209.7 171.93)"/><path class="cls-6" d="M576.27,378.25a4.9,4.9,0,1,0,4.87-4.95A4.88,4.88,0,0,0,576.27,378.25Z" transform="translate(209.7 171.93)"/><path class="cls-6" d="M631.71,320.49a4.86,4.86,0,1,0,4.86,4.83A4.9,4.9,0,0,0,631.71,320.49Z" transform="translate(209.7 171.93)"/><path class="cls-6" d="M664.33,657.49a9.2,9.2,0,0,0-16.87-3.19Z" transform="translate(209.7 171.93)"/><path class="cls-6" d="M507.28,452.51a4.83,4.83,0,1,0-5-4.66A4.9,4.9,0,0,0,507.28,452.51Z" transform="translate(209.7 171.93)"/><path class="cls-6" d="M682.29,277a4.82,4.82,0,1,0-4.86-4.8A4.9,4.9,0,0,0,682.29,277Z" transform="translate(209.7 171.93)"/><path class="cls-6" d="M557.62,389.8a4.76,4.76,0,1,0,4.76,4.73A4.78,4.78,0,0,0,557.62,389.8Z" transform="translate(209.7 171.93)"/><path class="cls-6" d="M912.36,466.38c.41-5.78.82-11.46,1.22-17.21-2.92.55-5.49,3.95-6,7.66A9.48,9.48,0,0,0,912.36,466.38Z" transform="translate(209.7 171.93)"/><path class="cls-6" d="M603.48,341.79a4.68,4.68,0,1,0,4.53-4.74A4.61,4.61,0,0,0,603.48,341.79Z" transform="translate(209.7 171.93)"/><path class="cls-6" d="M684.28,659.46a9.4,9.4,0,0,0-8.76-6.28c-3.48-.08-7,1.92-8.18,4.7Z" transform="translate(209.7 171.93)"/><path class="cls-6" d="M654.07,288.92a4.63,4.63,0,1,0,4.59-4.66A4.58,4.58,0,0,0,654.07,288.92Z" transform="translate(209.7 171.93)"/><path class="cls-6" d="M709.12,231.14a4.62,4.62,0,1,0,4.74,4.53A4.59,4.59,0,0,0,709.12,231.14Z" transform="translate(209.7 171.93)"/><path class="cls-6" d="M529.45,411.27A4.62,4.62,0,1,0,534,406.6,4.58,4.58,0,0,0,529.45,411.27Z" transform="translate(209.7 171.93)"/><path class="cls-6" d="M580,358.07a4.59,4.59,0,1,0,4.58-4.57A4.61,4.61,0,0,0,580,358.07Z" transform="translate(209.7 171.93)"/><path class="cls-6" d="M635.18,300.71a4.54,4.54,0,1,0,4.51,4.6A4.6,4.6,0,0,0,635.18,300.71Z" transform="translate(209.7 171.93)"/><path class="cls-6" d="M548.8,602a7.47,7.47,0,0,0-10.27-10.27C541.51,595.61,545.23,598.66,548.8,602Z" transform="translate(209.7 171.93)"/><path class="cls-6" d="M479.65,462.17c.27,1.83.39,3.29.73,4.69a2.49,2.49,0,0,0,1.15,1.42,4.65,4.65,0,0,0,5.93-1.65,4.77,4.77,0,0,0-.74-6,4.64,4.64,0,0,0-6.14-.17A5.18,5.18,0,0,0,479.65,462.17Z" transform="translate(209.7 171.93)"/><path class="cls-6" d="M510.57,423.1a4.49,4.49,0,1,0,4.44,4.54A4.54,4.54,0,0,0,510.57,423.1Z" transform="translate(209.7 171.93)"/><path class="cls-6" d="M681.2,252.39a4.49,4.49,0,1,0,4.51-4.47A4.54,4.54,0,0,0,681.2,252.39Z" transform="translate(209.7 171.93)"/><path class="cls-6" d="M561.06,379.14a4.4,4.4,0,1,0-4.39-4.33A4.33,4.33,0,0,0,561.06,379.14Z" transform="translate(209.7 171.93)"/><path class="cls-6" d="M611.66,317.28a4.34,4.34,0,1,0,4.28,4.43A4.28,4.28,0,0,0,611.66,317.28Z" transform="translate(209.7 171.93)"/><path class="cls-6" d="M482.64,443.93a4.33,4.33,0,1,0,4.39-4.31A4.28,4.28,0,0,0,482.64,443.93Z" transform="translate(209.7 171.93)"/><path class="cls-6" d="M662.16,264.48a4.3,4.3,0,1,0,4.29,4.28A4.32,4.32,0,0,0,662.16,264.48Z" transform="translate(209.7 171.93)"/><path class="cls-6" d="M537.52,395.41a4.3,4.3,0,1,0-4.3-4.29A4.32,4.32,0,0,0,537.52,395.41Z" transform="translate(209.7 171.93)"/><path class="cls-6" d="M588,334a4.25,4.25,0,1,0,4.31,4.1A4.31,4.31,0,0,0,588,334Z" transform="translate(209.7 171.93)"/><path class="cls-6" d="M634.41,285.19a4.19,4.19,0,1,0,4.18-4.23A4.21,4.21,0,0,0,634.41,285.19Z" transform="translate(209.7 171.93)"/><path class="cls-6" d="M509.87,407.53a4.09,4.09,0,1,0,4-4.14A4,4,0,0,0,509.87,407.53Z" transform="translate(209.7 171.93)"/><path class="cls-6" d="M685.05,232.33a4.09,4.09,0,1,0,4-4.11A4,4,0,0,0,685.05,232.33Z" transform="translate(209.7 171.93)"/><path class="cls-6" d="M560.47,354.67a4,4,0,1,0,3.93-4.07A4,4,0,0,0,560.47,354.67Z" transform="translate(209.7 171.93)"/><path class="cls-6" d="M629.08,649.24l15.22,4.3c-1.15-3.34-3.06-5.34-6-6.32C635,646.12,632.05,646.88,629.08,649.24Z" transform="translate(209.7 171.93)"/><path class="cls-6" d="M611.05,301.87a4,4,0,1,0,4-4.07A4,4,0,0,0,611.05,301.87Z" transform="translate(209.7 171.93)"/><path class="cls-6" d="M486.42,424.15a4,4,0,1,0,4-4A4.05,4.05,0,0,0,486.42,424.15Z" transform="translate(209.7 171.93)"/><path class="cls-6" d="M661.6,248.73a4,4,0,1,0,4-4A4,4,0,0,0,661.6,248.73Z" transform="translate(209.7 171.93)"/><path class="cls-6" d="M537,371.12a3.93,3.93,0,1,0,3.82-4A4,4,0,0,0,537,371.12Z" transform="translate(209.7 171.93)"/><path class="cls-6" d="M591.85,322a3.84,3.84,0,1,0-3.9-3.74A3.79,3.79,0,0,0,591.85,322Z" transform="translate(209.7 171.93)"/><path class="cls-6" d="M848.68,287.3l-9.92-9.23c-1.27,2.25-.33,6,1.67,7.85A7.4,7.4,0,0,0,848.68,287.3Z" transform="translate(209.7 171.93)"/><path class="cls-6" d="M642.32,269.1a3.77,3.77,0,1,0-3.76-3.7A3.71,3.71,0,0,0,642.32,269.1Z" transform="translate(209.7 171.93)"/><path class="cls-6" d="M517.63,391.39A3.73,3.73,0,1,0,514,387.6,3.73,3.73,0,0,0,517.63,391.39Z" transform="translate(209.7 171.93)"/><path class="cls-6" d="M618.78,278a3.66,3.66,0,1,0,3.66,3.67A3.74,3.74,0,0,0,618.78,278Z" transform="translate(209.7 171.93)"/><path class="cls-6" d="M568.19,330.87a3.67,3.67,0,1,0,3.72,3.62A3.76,3.76,0,0,0,568.19,330.87Z" transform="translate(209.7 171.93)"/><path class="cls-6" d="M490.58,404a3.57,3.57,0,1,0,3.53-3.57A3.54,3.54,0,0,0,490.58,404Z" transform="translate(209.7 171.93)"/><path class="cls-6" d="M544.57,347.71a3.49,3.49,0,1,0,3.6,3.3A3.43,3.43,0,0,0,544.57,347.71Z" transform="translate(209.7 171.93)"/><path class="cls-6" d="M595.29,301.51a3.44,3.44,0,1,0-3.5-3.42A3.47,3.47,0,0,0,595.29,301.51Z" transform="translate(209.7 171.93)"/><path class="cls-6" d="M813,258.85l-10.24-6.16A6.43,6.43,0,0,0,813,258.85Z" transform="translate(209.7 171.93)"/><path class="cls-6" d="M665.67,228.89a3.71,3.71,0,0,0,2.41,3.39,3.64,3.64,0,0,0,3.92-1,3.56,3.56,0,0,0,.55-4.1c-.35-.67-.67-1.1-1.65-.77a14.14,14.14,0,0,1-3.34.39C666.12,227,665.65,227.42,665.67,228.89Z" transform="translate(209.7 171.93)"/><path class="cls-6" d="M642.4,245.27a3.38,3.38,0,1,0,3.33-3.42A3.46,3.46,0,0,0,642.4,245.27Z" transform="translate(209.7 171.93)"/><path class="cls-6" d="M517.88,367.63a3.26,3.26,0,1,0,3.2-3.32A3.21,3.21,0,0,0,517.88,367.63Z" transform="translate(209.7 171.93)"/><path class="cls-6" d="M568.45,314.68a3.24,3.24,0,1,0,3.31-3.2A3.19,3.19,0,0,0,568.45,314.68Z" transform="translate(209.7 171.93)"/><path class="cls-6" d="M619.05,261.61a3.18,3.18,0,1,0,3.16-3.18A3.15,3.15,0,0,0,619.05,261.61Z" transform="translate(209.7 171.93)"/><path class="cls-6" d="M702.18,659.52a9.53,9.53,0,0,0-14,0Z" transform="translate(209.7 171.93)"/><path class="cls-6" d="M494.46,384.22a3.14,3.14,0,1,0,3.1-3.13A3.19,3.19,0,0,0,494.46,384.22Z" transform="translate(209.7 171.93)"/><path class="cls-6" d="M545.09,331a3,3,0,1,0,3.07-3A3.1,3.1,0,0,0,545.09,331Z" transform="translate(209.7 171.93)"/><path class="cls-6" d="M595.75,278.23a2.93,2.93,0,1,0,2.92-2.9A2.87,2.87,0,0,0,595.75,278.23Z" transform="translate(209.7 171.93)"/><path class="cls-6" d="M521.74,347.81a2.85,2.85,0,1,0,2.75-2.91A2.88,2.88,0,0,0,521.74,347.81Z" transform="translate(209.7 171.93)"/><path class="cls-6" d="M575.07,297.39a2.77,2.77,0,1,0-2.7-2.79A2.81,2.81,0,0,0,575.07,297.39Z" transform="translate(209.7 171.93)"/><path class="cls-6" d="M493.73,521.72c1.35,3.17,2.62,6.16,3.89,9.17a4.84,4.84,0,0,0,1.09-5.21A5.65,5.65,0,0,0,493.73,521.72Z" transform="translate(209.7 171.93)"/><path class="cls-6" d="M625.65,239.14a2.65,2.65,0,1,0,2.67,2.58A2.57,2.57,0,0,0,625.65,239.14Z" transform="translate(209.7 171.93)"/><path class="cls-6" d="M498.46,364.09a2.58,2.58,0,1,0,2.58-2.55A2.61,2.61,0,0,0,498.46,364.09Z" transform="translate(209.7 171.93)"/><path class="cls-6" d="M549.09,311.3a2.49,2.49,0,1,0,2.44-2.51A2.56,2.56,0,0,0,549.09,311.3Z" transform="translate(209.7 171.93)"/><path class="cls-6" d="M602.08,260.5a2.35,2.35,0,1,0-2.3-2.39A2.28,2.28,0,0,0,602.08,260.5Z" transform="translate(209.7 171.93)"/><path class="cls-6" d="M913.38,443.53v-11.1C910.78,434.69,910.77,440.91,913.38,443.53Z" transform="translate(209.7 171.93)"/><path class="cls-6" d="M528.06,329.92a2.27,2.27,0,1,0-2.3-2.25A2.32,2.32,0,0,0,528.06,329.92Z" transform="translate(209.7 171.93)"/><path class="cls-6" d="M576.45,274.87a2.13,2.13,0,1,0,2-2.18A2.1,2.1,0,0,0,576.45,274.87Z" transform="translate(209.7 171.93)"/><path class="cls-6" d="M482,479.58c.53,2.76,1,5.35,1.53,8C486.1,485.88,485.49,480.86,482,479.58Z" transform="translate(209.7 171.93)"/><path class="cls-6" d="M504.51,346a2,2,0,1,0-.11-4,2.16,2.16,0,0,0-1.92,2.08A2,2,0,0,0,504.51,346Z" transform="translate(209.7 171.93)"/><path class="cls-6" d="M555.27,293a1.85,1.85,0,1,0,0-3.69,1.71,1.71,0,0,0-1.81,1.82A1.76,1.76,0,0,0,555.27,293Z" transform="translate(209.7 171.93)"/><path class="cls-6" d="M614.15,643.71l8,3.07A7.36,7.36,0,0,0,614.15,643.71Z" transform="translate(209.7 171.93)"/><path class="cls-6" d="M531.35,305.74c-.39.64-1,1.26-1.1,1.94a1.34,1.34,0,0,0,1.57,1.43,1.37,1.37,0,0,0,1.47-1.68c-.13-.63-.84-1.14-1.28-1.71Z" transform="translate(209.7 171.93)"/><path class="cls-6" d="M902.44,374.66c.45,1.54.91,3.07,1.36,4.61l.46-.15q-.72-2.28-1.45-4.58Z" transform="translate(209.7 171.93)"/></g><g class="cls-7"><path class="cls-6" d="M451,366.67c-71.92-26.59-203,20.83-263,13.2C47.76,362,74.33,232.32.5,176.07c-44.06-54.14-91.44-55-98.93-55l-19.3,65.49c-42,62.18-91.77,135.19-92,220.53.22,107.61,71.86,177.79,133.27,217.47,87.24,55.39,189.64,73.71,290,64.41a463.09,463.09,0,0,0,149.94-39.64c36.66-16.87,71.66-39.09,103.09-70.37,22.8-22.29,106-21.52,115.22-59.46C587.81,494.76,535.46,397.89,451,366.67Z" transform="translate(209.7 171.93)"/></g><g class="cls-7"><path class="cls-6" d="M524.18,330.84c-87.75-6.12-216.83,88.29-285.35,99.21C78.64,455.58,66.12,304.17-33.28,266c-65.94-45.43-118.4-31.13-126.64-28.72l-.18,78.33c-26.27,82-57.52,178.41-30.27,272.45C-155.49,706.48-54,760.7,26.4,784.62c113.89,32.9,232.54,20.11,340-22.43a531.1,531.1,0,0,0,152.34-91.92c35-30.37,66.33-66.11,90.87-110.67C627.54,527.71,719.44,501.76,717.34,457,716,427.85,627.21,338,524.18,330.84Z" transform="translate(209.7 171.93)"/></g><g class="cls-7"><path class="cls-6" d="M259.58-24C303.51-7.12,347.44,6.4,391.37,18.23c57.45,15.21,114.9,27,169,50.69,49,20.27,91.25,52.38,116.59,101.38,23.66,42.24,30.41,94.62,60.83,133.48,11.83,16.9,27,28.72,47.31,32.1,25.34,5.07,50.69-5.07,71-18.58,57.45-38.87,91.25-111.52,87.87-179.11C940.51,52,879.68-15.56,808.71-57.81c-72.65-43.93-155.44-67.58-238.24-77.72-57.45-5.07-114.89-3.38-169,16.9-52.38,20.27-103.07,49-152.07,76Z" transform="translate(209.7 171.93)"/></g><g class="cls-7"><path class="cls-6" d="M208.07,69.58C241.33,88,324,73.88,369,67.4c58.78-8.71,116.24-20.52,175.25-20.13,53-.72,104.51,12.1,147.14,47.12C729.82,123.86,756.71,169.32,800,193c17.54,10.85,36.18,15.72,56.14,10.82,25.29-5.35,44.57-24.67,57.87-45.1,37.44-58.38,39.81-138.48,10-199.24-37.13-77.84-119.69-115.92-201.57-126.72-84.1-11.68-169.5-.73-249.57,22.64-54.79,18-106.9,42.26-148.58,82.23C284.18-23,212.89-37.83,178.54,6.35,178.54,6.35,160.74,43.36,208.07,69.58Z" transform="translate(209.7 171.93)"/></g><path class="cls-8" d="M238.82,72.75C248.62,78.07,260,80,271,81a252.83,252.83,0,0,0,32.57.59c27.74-1,55.31-4.92,82.75-9,36.41-5.35,72.67-11.8,109.15-16.55,41.94-5.46,85.42-9.12,127.4-2.31,33.48,5.43,65.59,18.13,92.75,38.59,25.93,19.54,46.45,44.18,69.12,67.16,11.37,11.52,23.44,22.47,37.06,31.28,14,9,29.07,17,46,18,29.68,1.65,55-15.75,72.18-38.66,38.6-51.46,45.51-124.72,25.17-184.71a197.49,197.49,0,0,0-47.85-76.77c-21.15-21-46.73-37-74-48.8C784.36-165.55,717.86-171.35,654.35-168A640.48,640.48,0,0,0,540.2-151.1c-34.94,8.31-68.9,19.74-101.32,35.29-31,14.86-59.54,33.69-84.54,57.32-20.14,19-47.78,25.24-73.85,31.71-25.42,6.31-52.61,13.66-70,34.75-2.59,3.15-3.41,7.53-4,11.48a44.21,44.21,0,0,0,3.72,25.49c5.86,12.37,16.88,21.23,28.58,27.81.25.14.75-.16,1,0-19.4-10.92-35.68-29.21-32.36-52.83.49-3.55,1.22-7.7,3.14-10.8,3.28-5.29,9.13-9.91,14.08-13.56a91.78,91.78,0,0,1,16.16-9.4c24.13-11.12,51-14.07,76-22.67,12.22-4.21,24.08-9.81,34.1-18.06,6-4.92,11.38-10.55,17.28-15.58q9.75-8.28,20.2-15.67c57.38-40.7,126.84-62.23,195.53-74,42.79-7.36,86.37-10.51,129.75-8,32.39,1.86,64.83,6.49,95.93,15.9,55.56,16.8,107.71,49.37,137.59,100.37C978.9,2.49,984,71.25,961.13,129.65c-11,28.09-29.21,57.14-56.91,71.18-16.27,8.25-35.13,10.33-52.58,4.72-15.54-5-30.22-14.74-42.88-24.9-24.55-19.71-43.92-44.82-66.54-66.56-23.67-22.74-51.14-41-82.37-51.48-30.51-10.26-62.24-12.67-94.23-12.15-35.4.59-70.55,5.22-105.49,10.64-32,5-63.93,10.24-96,14.62-31.16,4.25-63.46,8.48-94.88,5-10.08-1.12-20.43-3.11-29.43-8C239.56,72.59,239.07,72.88,238.82,72.75Z" transform="translate(209.7 171.93)"/><path class="cls-8" d="M556.29,326c-37.29-2.43-74.37,10.51-108.37,24.43-41.38,16.93-80.8,38.13-121.75,56C310,413.45,293.28,420.3,275.92,424c-23.6,5.09-49.07,6.22-72.89,2.32-32.85-5.37-60.34-22.53-83.34-46.06-23.42-24-42.67-51.63-66-75.65C23.2,273.37-14.46,250.51-54.75,234c-17.81-7.29-41.87-16.42-61.28-9-4.14,1.58-7.25,4.33-11,6.53-1.73,1-1.77.74-1.78,2.89l0,15.27-.1,45.6c0,4.68.22,9.43,0,14.11a25.5,25.5,0,0,1-1.66,6.46q-3.1,9.7-6.17,19.42c-17.71,56.27-33.57,114.34-33,173.81.55,53.65,16.16,106.3,47.06,150.35,24.53,35,57.62,63,94.56,84.17,36.75,21,77.12,35.55,118.47,44.32,51.78,11,105.29,13,157.86,7.26,58.47-6.42,116.08-22.36,169.9-46,52-22.88,100.83-54.19,142.72-92.66a419.36,419.36,0,0,0,54.08-59.84,378.09,378.09,0,0,0,23.28-35.62c4.06-7.06,7.86-13.07,14-18.55,26.19-23.49,62.08-34.93,85.54-61.75,8.16-9.32,14.66-22.16,10.56-34.69-4-12.22-13-23-21.41-32.47C698.79,382.22,662,357.4,623,341.8A224.28,224.28,0,0,0,556.29,326c-.3,0-.73,0-1,0,46.59,3.42,91,23,128.5,50.22a264.05,264.05,0,0,1,42.32,37.76c8.26,9.29,17,19.9,21,31.88,4.06,12.15-1.82,24.67-9.62,33.93-11.24,13.34-26.59,23-41.21,32.17s-29.82,17.58-43,28.68c-5.08,4.28-9.69,9-13,14.82A419,419,0,0,1,618,591c-31.55,44.5-72.52,81.74-117.6,112.19-46.69,31.53-98.25,55.06-152.15,71.26-61.12,18.37-125.4,27-189.19,22.8-49.36-3.25-98.35-13.91-144-33C-21.85,748.89-56.67,728-85.86,700.63a262.62,262.62,0,0,1-71.36-114c-17.59-57-12.87-117.79.19-175.2,6.31-27.75,14.53-55,23.13-82.14l2.85-8.95c1-3,2.62-6.44,3.07-9.59a16.89,16.89,0,0,0,0-2.36l0-15.32.1-44.85c0-4.69-.31-9.52,0-14.21.14-1.9.29-1.54,1.92-2.53,3.67-2.22,6.77-4.89,10.86-6.44,9.17-3.5,19.35-2.59,28.77-.69,18,3.62,35.13,11.16,51.48,19.21,20.86,10.27,41.45,21.64,59.76,36,27.1,21.32,48.48,48.22,70.44,74.53,19.76,23.68,41.07,47.07,69.31,60.66,31.45,15.14,67.31,16,101.29,11.15,16.83-2.4,32.8-7.82,48.51-14.2,19-7.73,37.57-16.63,56.08-25.5C410.7,367,451,346.79,493.81,334.45c19.88-5.72,40.74-9.85,61.51-8.49C555.62,326,556.05,325.94,556.29,326Z" transform="translate(209.7 171.93)"/></g></g></g></svg>